<svg width="14" height="20" viewBox="0 0 14 20" fill="none" xmlns="http://www.w3.org/2000/svg">
<path d="M10 16.6667C10.4602 16.6667 10.8333 16.2936 10.8333 15.8333C10.8333 15.3731 10.4602 15 10 15C9.53976 15 9.16666 15.3731 9.16666 15.8333C9.16666 16.2936 9.53976 16.6667 10 16.6667Z" fill="white" stroke="white" stroke-linecap="round" stroke-linejoin="round"/>
<path d="M10 10.8332C10.4602 10.8332 10.8333 10.4601 10.8333 9.99984C10.8333 9.5396 10.4602 9.1665 10 9.1665C9.53976 9.1665 9.16666 9.5396 9.16666 9.99984C9.16666 10.4601 9.53976 10.8332 10 10.8332Z" fill="white" stroke="white" stroke-linecap="round" stroke-linejoin="round"/>
<path d="M10 5.00016C10.4602 5.00016 10.8333 4.62707 10.8333 4.16683C10.8333 3.70659 10.4602 3.3335 10 3.3335C9.53976 3.3335 9.16666 3.70659 9.16666 4.16683C9.16666 4.62707 9.53976 5.00016 10 5.00016Z" fill="white" stroke="white" stroke-linecap="round" stroke-linejoin="round"/>
</svg>
